<svg xmlns="http://www.w3.org/2000/svg" viewBox="0 0 100 100" width="100" height="100">
  <rect x="10" y="10" width="80" height="80" rx="18" ry="18" fill="rgb(37, 99, 235)"/>
  <rect x="24.00" y="24.00" width="10.40" height="7.43" fill="rgb(255, 255, 255)"/>
  <rect x="34.40" y="24.00" width="10.40" height="7.43" fill="rgb(255, 255, 255)"/>
  <rect x="44.80" y="24.00" width="10.40" height="7.43" fill="rgb(255, 255, 255)"/>
  <rect x="55.20" y="24.00" width="10.40" height="7.43" fill="rgb(255, 255, 255)"/>
  <rect x="24.00" y="31.43" width="10.40" height="7.43" fill="rgb(255, 255, 255)"/>
  <rect x="65.60" y="31.43" width="10.40" height="7.43" fill="rgb(255, 255, 255)"/>
  <rect x="24.00" y="38.86" width="10.40" height="7.43" fill="rgb(255, 255, 255)"/>
  <rect x="65.60" y="38.86" width="10.40" height="7.43" fill="rgb(255, 255, 255)"/>
  <rect x="24.00" y="46.29" width="10.40" height="7.43" fill="rgb(255, 255, 255)"/>
  <rect x="34.40" y="46.29" width="10.40" height="7.43" fill="rgb(255, 255, 255)"/>
  <rect x="44.80" y="46.29" width="10.40" height="7.43" fill="rgb(255, 255, 255)"/>
  <rect x="55.20" y="46.29" width="10.40" height="7.43" fill="rgb(255, 255, 255)"/>
  <rect x="24.00" y="53.71" width="10.40" height="7.43" fill="rgb(255, 255, 255)"/>
  <rect x="24.00" y="61.14" width="10.40" height="7.43" fill="rgb(255, 255, 255)"/>
  <rect x="24.00" y="68.57" width="10.40" height="7.43" fill="rgb(255, 255, 255)"/>
</svg>
